<svg xmlns="http://www.w3.org/2000/svg" width="42" height="41" viewBox="0 0 42 41">
  <metadata><?xpacket begin="﻿" id="W5M0MpCehiHzreSzNTczkc9d"?>
<x:xmpmeta xmlns:x="adobe:ns:meta/" x:xmptk="Adobe XMP Core 5.6-c138 79.159824, 2016/09/14-01:09:01        ">
   <rdf:RDF xmlns:rdf="http://www.w3.org/1999/02/22-rdf-syntax-ns#">
      <rdf:Description rdf:about=""/>
   </rdf:RDF>
</x:xmpmeta>
                                                                                                    
                                                                                                    
                                                                                                    
                                                                                                    
                                                                                                    
                                                                                                    
                                                                                                    
                                                                                                    
                                                                                                    
                                                                                                    
                                                                                                    
                                                                                                    
                                                                                                    
                                                                                                    
                                                                                                    
                                                                                                    
                                                                                                    
                                                                                                    
                                                                                                    
                                                                                                    
                           
<?xpacket end="w"?></metadata>
<defs>
    <style>
      .cls-1 {
        fill: #50c3af;
        fill-rule: evenodd;
      }
    </style>
  </defs>
  <path id="headset" class="cls-1" d="M617.762,647.408a18.778,18.778,0,0,0-32.169,13.059l-0.086,11.244a1.666,1.666,0,0,0,1.652,1.68h0.013a1.666,1.666,0,0,0,1.665-1.655l0.086-11.243a15.486,15.486,0,0,1,15.452-15.364H604.5a15.467,15.467,0,0,1,15.335,15.6l-0.086,11.243a1.668,1.668,0,0,0,1.653,1.682h0.013A1.668,1.668,0,0,0,623.076,672l0.085-11.244A18.709,18.709,0,0,0,617.762,647.408Zm-7.376,13.466h-0.011a1.459,1.459,0,0,0-1.457,1.449l-0.143,18.706a1.459,1.459,0,0,0,1.445,1.471h0.111c5.77,0,7.323-3.6,7.338-5.5l0.08-10.521a5.289,5.289,0,0,0-1-2.914C615.881,662.356,614.072,660.9,610.386,660.874Zm4.369,16.082c-0.018.384-.255,2.1-3.055,2.529l0.12-15.574c2.791,0.468,3,2.187,3.015,2.55Zm-16.066-16.171H598.58c-5.771,0-7.324,3.6-7.338,5.5L591.161,676.8a5.285,5.285,0,0,0,1,2.914c0.868,1.213,2.676,2.666,6.362,2.695h0.011a1.458,1.458,0,0,0,1.457-1.449l0.144-18.705A1.458,1.458,0,0,0,598.689,660.785Zm-1.6,18.588c-2.79-.467-3-2.186-3.015-2.549l0.08-10.5c0.018-.383.256-2.1,3.055-2.53Z" transform="translate(-583.328 -641.64)"/>
</svg>
