<svg xmlns="http://www.w3.org/2000/svg" width="42" height="41" viewBox="0 0 42 41">
  <metadata><?xpacket begin="﻿" id="W5M0MpCehiHzreSzNTczkc9d"?>
<x:xmpmeta xmlns:x="adobe:ns:meta/" x:xmptk="Adobe XMP Core 5.6-c138 79.159824, 2016/09/14-01:09:01        ">
   <rdf:RDF xmlns:rdf="http://www.w3.org/1999/02/22-rdf-syntax-ns#">
      <rdf:Description rdf:about=""/>
   </rdf:RDF>
</x:xmpmeta>
                                                                                                    
                                                                                                    
                                                                                                    
                                                                                                    
                                                                                                    
                                                                                                    
                                                                                                    
                                                                                                    
                                                                                                    
                                                                                                    
                                                                                                    
                                                                                                    
                                                                                                    
                                                                                                    
                                                                                                    
                                                                                                    
                                                                                                    
                                                                                                    
                                                                                                    
                                                                                                    
                           
<?xpacket end="w"?></metadata>
<defs>
    <style>
      .cls-1 {
        fill: #50c3af;
        fill-rule: evenodd;
      }
    </style>
  </defs>
  <path id="heart" class="cls-1" d="M416.058,651.969a10.745,10.745,0,0,0-9.641-6.569,10.147,10.147,0,0,0-8.317,3.793,10.145,10.145,0,0,0-8.316-3.793,10.746,10.746,0,0,0-9.642,6.569,11.189,11.189,0,0,0,2.173,12.285c7.755,8.639,14.607,14.763,14.675,14.824a1.671,1.671,0,0,0,2.22,0c0.068-.061,6.92-6.185,14.675-14.824A11.189,11.189,0,0,0,416.058,651.969ZM411.4,662.028c-5.8,6.463-11.08,11.488-13.3,13.547-2.222-2.059-7.5-7.084-13.3-13.547a7.843,7.843,0,0,1-1.61-8.7,7.509,7.509,0,0,1,6.6-4.6c5.374,0,6.58,3.992,6.7,4.433a1.668,1.668,0,0,0,3.24,0c0.044-.18,1.149-4.433,6.7-4.433a7.507,7.507,0,0,1,6.6,4.6A7.843,7.843,0,0,1,411.4,662.028Zm-5-11.479a1.666,1.666,0,1,0-.45,3.3c0.087,0.012,2.14.325,2.335,3.258a1.667,1.667,0,0,0,1.662,1.556c0.037,0,.075,0,0.113,0a1.667,1.667,0,0,0,1.553-1.773C411.313,652.4,408.071,650.777,406.4,650.549Zm1.529,8.836a1.7,1.7,0,0,0-1.18.488,1.669,1.669,0,0,0,0,2.357,1.668,1.668,0,0,0,2.848-1.178,1.673,1.673,0,0,0-.488-1.179A1.693,1.693,0,0,0,407.928,659.385Z" transform="translate(-377.11 -641.953)"/>
</svg>
