<svg xmlns="http://www.w3.org/2000/svg" width="42" height="41" viewBox="0 0 42 41">
  <metadata><?xpacket begin="﻿" id="W5M0MpCehiHzreSzNTczkc9d"?>
<x:xmpmeta xmlns:x="adobe:ns:meta/" x:xmptk="Adobe XMP Core 5.6-c138 79.159824, 2016/09/14-01:09:01        ">
   <rdf:RDF xmlns:rdf="http://www.w3.org/1999/02/22-rdf-syntax-ns#">
      <rdf:Description rdf:about=""/>
   </rdf:RDF>
</x:xmpmeta>
                                                                                                    
                                                                                                    
                                                                                                    
                                                                                                    
                                                                                                    
                                                                                                    
                                                                                                    
                                                                                                    
                                                                                                    
                                                                                                    
                                                                                                    
                                                                                                    
                                                                                                    
                                                                                                    
                                                                                                    
                                                                                                    
                                                                                                    
                                                                                                    
                                                                                                    
                                                                                                    
                           
<?xpacket end="w"?></metadata>
<defs>
    <style>
      .cls-1 {
        fill: #50c3af;
        fill-rule: evenodd;
      }
    </style>
  </defs>
  <path id="user_group" class="cls-1" d="M188.546,670.869a9.635,9.635,0,1,0-9.625-9.634A9.641,9.641,0,0,0,188.546,670.869Zm0-15.934a6.3,6.3,0,1,1-6.293,6.3A6.3,6.3,0,0,1,188.546,654.935Zm4.41,16.293a1.659,1.659,0,0,0-1.58.316l-2.83,2.4-2.828-2.4a1.662,1.662,0,0,0-1.581-.316c-2.776.881-11.837,4.139-11.837,9a1.667,1.667,0,0,0,1.666,1.668h29.161a1.667,1.667,0,0,0,1.666-1.668C204.793,675.367,195.733,672.109,192.956,671.228Zm-16.175,7.336a26.422,26.422,0,0,1,7.5-3.868l3.189,2.7a1.665,1.665,0,0,0,2.152,0l3.191-2.7a26.429,26.429,0,0,1,7.5,3.868H176.781Zm31.794-7.446a1.251,1.251,0,0,0-1.111,2.241,11.947,11.947,0,0,1,3.724,2.873h-4.441a1.251,1.251,0,0,0,0,2.5h6.2a1.25,1.25,0,0,0,1.249-1.251C214.2,674.008,209.151,671.4,208.575,671.118Zm-6.193-2.133a3.8,3.8,0,0,1-2.706-1.122,1.251,1.251,0,1,0-1.768,1.769,6.333,6.333,0,1,0,2.012-10.314,1.25,1.25,0,0,0,.972,2.3A3.832,3.832,0,1,1,202.382,668.985Z" transform="translate(-172.25 -646.25)"/>
</svg>
